<?xml version="1.0" standalone="no"?>
<!DOCTYPE svg PUBLIC "-//W3C//DTD SVG 20010904//EN"
 "http://www.w3.org/TR/2001/REC-SVG-20010904/DTD/svg10.dtd">
<svg version="1.0" xmlns="http://www.w3.org/2000/svg"
 width="433.000000pt" height="433.000000pt" viewBox="0 0 433.000000 433.000000"
 preserveAspectRatio="xMidYMid meet">
<metadata>
Created by potrace 1.11, written by Peter Selinger 2001-2013
</metadata>
<g transform="translate(0.000000,433.000000) scale(0.100000,-0.100000)"
fill="#000000" stroke="none">
<path d="M3150 4320 c-156 -20 -410 -139 -526 -246 -79 -72 -834 -827 -831
-830 2 -2 19 1 38 7 76 22 319 9 394 -22 11 -4 31 -11 45 -14 50 -13 135 -50
143 -62 4 -7 14 -13 22 -13 7 0 129 116 272 258 227 227 335 322 362 322 5 0
14 6 20 14 7 8 26 17 44 20 18 3 45 13 60 21 41 21 220 22 272 1 72 -29 147
-70 152 -83 3 -7 9 -13 14 -13 31 0 124 -144 145 -223 24 -91 15 -212 -21
-302 -27 -67 -62 -126 -77 -133 -5 -2 -8 -11 -8 -20 0 -20 -874 -898 -960
-964 -36 -27 -99 -66 -140 -86 l-75 -37 -135 0 c-132 0 -136 1 -196 31 -34 18
-88 53 -120 79 -80 65 -135 88 -209 88 -194 0 -322 -208 -237 -384 28 -58 98
-128 187 -189 172 -116 349 -169 567 -170 126 0 220 14 338 52 119 38 301 133
340 178 3 3 21 18 40 33 19 16 252 245 518 510 510 508 542 545 629 722 81
162 103 266 103 475 0 201 -24 310 -100 456 -99 189 -216 308 -418 424 -33 19
-172 74 -227 89 -52 15 -341 22 -425 11z"/>
<path d="M1820 2959 c-19 -4 -51 -9 -70 -10 -19 -1 -41 -7 -47 -12 -7 -5 -13
-6 -13 -2 0 4 -6 3 -12 -3 -7 -5 -38 -17 -68 -25 -62 -18 -214 -94 -269 -135
-78 -57 -212 -186 -609 -583 -365 -366 -517 -526 -560 -594 -25 -40 -92 -179
-92 -192 0 -7 -5 -13 -10 -13 -6 0 -9 -3 -8 -7 1 -5 -5 -30 -15 -58 -27 -82
-47 -213 -47 -323 0 -106 24 -290 41 -306 5 -6 9 -17 9 -25 0 -9 23 -63 50
-120 56 -115 156 -244 243 -312 29 -23 63 -50 77 -62 45 -38 213 -115 315
-143 90 -26 115 -29 255 -28 116 0 171 5 220 18 36 10 84 21 107 26 23 5 50
14 60 19 10 6 56 29 102 51 93 45 191 107 191 121 0 5 6 9 13 9 7 0 20 8 29
18 9 9 199 199 422 421 223 223 406 406 406 408 0 2 -4 2 -8 -1 -5 -3 -46 -10
-93 -16 -108 -13 -262 2 -379 38 -76 23 -100 34 -161 71 -13 8 -62 -37 -255
-230 -131 -132 -262 -258 -290 -279 -182 -142 -379 -178 -545 -98 -101 48
-178 122 -228 220 -40 77 -40 77 -40 195 0 95 4 127 20 162 10 24 19 47 19 52
0 5 21 41 46 81 35 54 163 188 518 543 388 389 483 479 541 512 108 63 163 78
285 78 132 0 191 -22 305 -112 88 -69 132 -87 215 -87 97 0 171 42 228 129 24
36 27 50 27 135 0 92 -1 97 -36 150 -33 50 -183 180 -208 180 -5 0 -16 6 -23
13 -7 7 -35 23 -63 36 -27 12 -58 27 -67 32 -10 5 -23 9 -30 9 -7 0 -26 7 -41
15 -69 36 -361 58 -457 34z"/>
</g>
</svg>
